<?xml version="1.0" encoding="UTF-8" standalone="no"?>
<svg xmlns="http://www.w3.org/2000/svg" xmlns:xlink="http://www.w3.org/1999/xlink" height="30" viewBox="0 0 109.286 30.342" width="109">
  <defs>
    <clipPath id="a">
      <rect fill="#002840" height="16.756" stroke="#707070" stroke-width="1" transform="translate(0 0)" width="17.248"/>
    </clipPath>
  </defs>
  <g transform="translate(-1207 -2382)">
    <path d="M8.4-47.742a5.684,5.684,0,0,1,2.778.691,5.292,5.292,0,0,1,2,1.905,5.1,5.1,0,0,1,.744,2.718,5.1,5.1,0,0,1-.744,2.718,5.292,5.292,0,0,1-2,1.905,5.684,5.684,0,0,1-2.778.691H4.485V-47.742Zm0,8.942a3.69,3.69,0,0,0,1.829-.471,3.482,3.482,0,0,0,1.328-1.3,3.6,3.6,0,0,0,.486-1.86,3.6,3.6,0,0,0-.486-1.86,3.482,3.482,0,0,0-1.328-1.3A3.69,3.69,0,0,0,8.4-46.057h-2.1V-38.8Zm7.789-7.227a1.163,1.163,0,0,1-.858-.342,1.163,1.163,0,0,1-.342-.858,1.163,1.163,0,0,1,.342-.858,1.163,1.163,0,0,1,.858-.342,1.163,1.163,0,0,1,.858.342,1.163,1.163,0,0,1,.342.858,1.163,1.163,0,0,1-.342.858A1.163,1.163,0,0,1,16.191-46.026Zm-.911,1.078H17.1v7.834H15.28ZM22.1-36.962a5.239,5.239,0,0,1-2.255-.448,3.174,3.174,0,0,1-1.435-1.283L19.85-39.71a2.553,2.553,0,0,0,.964.865,2.977,2.977,0,0,0,1.328.273,1.707,1.707,0,0,0,.994-.243.7.7,0,0,0,.342-.577.529.529,0,0,0-.235-.455,1.593,1.593,0,0,0-.531-.243q-.3-.076-1.04-.213a9.486,9.486,0,0,1-1.48-.395,2.494,2.494,0,0,1-1.04-.721,1.919,1.919,0,0,1-.425-1.3,2,2,0,0,1,.395-1.2,2.66,2.66,0,0,1,1.124-.865,4.131,4.131,0,0,1,1.67-.319,4.453,4.453,0,0,1,2.065.433,3.279,3.279,0,0,1,1.291,1.146l-1.458.941A2.137,2.137,0,0,0,21.869-43.6a1.65,1.65,0,0,0-.9.228.67.67,0,0,0-.357.577.573.573,0,0,0,.326.539,3.669,3.669,0,0,0,1.055.3,15.389,15.389,0,0,1,1.708.418,2.905,2.905,0,0,1,1.146.714,1.882,1.882,0,0,1,.516,1.4,2.174,2.174,0,0,1-.349,1.146,2.605,2.605,0,0,1-1.086.941A4.034,4.034,0,0,1,22.1-36.962Zm8.183,0a4.088,4.088,0,0,1-2.1-.539,3.8,3.8,0,0,1-1.442-1.473,4.181,4.181,0,0,1-.516-2.057,4.133,4.133,0,0,1,.524-2.057,3.859,3.859,0,0,1,1.45-1.473,4.03,4.03,0,0,1,2.065-.539,4.059,4.059,0,0,1,2.331.683,3.993,3.993,0,0,1,1.48,1.822l-1.685.577a2.461,2.461,0,0,0-.85-1.01,2.122,2.122,0,0,0-1.23-.387,2.207,2.207,0,0,0-1.184.319,2.155,2.155,0,0,0-.8.865,2.585,2.585,0,0,0-.281,1.2,2.382,2.382,0,0,0,.311,1.2,2.363,2.363,0,0,0,.835.865,2.137,2.137,0,0,0,1.131.319,2.119,2.119,0,0,0,1.268-.41,2.541,2.541,0,0,0,.858-1.078l1.64.638a3.973,3.973,0,0,1-1.473,1.837A4.031,4.031,0,0,1,30.28-36.962Zm8.624,0a4.2,4.2,0,0,1-2.126-.539,3.883,3.883,0,0,1-1.473-1.473,4.087,4.087,0,0,1-.531-2.057,4.087,4.087,0,0,1,.531-2.057,3.883,3.883,0,0,1,1.473-1.473A4.2,4.2,0,0,1,38.9-45.1a4.171,4.171,0,0,1,2.11.539,3.939,3.939,0,0,1,1.48,1.473,4.042,4.042,0,0,1,.539,2.057,4.042,4.042,0,0,1-.539,2.057,3.938,3.938,0,0,1-1.48,1.473A4.171,4.171,0,0,1,38.9-36.962ZM36.6-41.031a2.478,2.478,0,0,0,.3,1.2,2.23,2.23,0,0,0,.827.865,2.257,2.257,0,0,0,1.184.319,2.257,2.257,0,0,0,1.184-.319,2.23,2.23,0,0,0,.827-.865,2.478,2.478,0,0,0,.3-1.2,2.478,2.478,0,0,0-.3-1.2,2.23,2.23,0,0,0-.827-.865,2.258,2.258,0,0,0-1.184-.319,2.258,2.258,0,0,0-1.184.319,2.23,2.23,0,0,0-.827.865A2.478,2.478,0,0,0,36.6-41.031Zm9.945,3.917-3.188-7.834h1.959L47.33-39.7l1.928-5.253H51.2l-3.112,7.834ZM55.574-45.1a3.976,3.976,0,0,1,1.936.493,3.876,3.876,0,0,1,1.458,1.389,3.844,3.844,0,0,1,.554,2.065,4.711,4.711,0,0,1-.061.774H53.3a2.234,2.234,0,0,0,.8,1.3,2.391,2.391,0,0,0,1.533.493,2.348,2.348,0,0,0,2.186-1.26l1.518.638a3.973,3.973,0,0,1-1.473,1.647,3.947,3.947,0,0,1-2.141.6,4.388,4.388,0,0,1-2.179-.539,3.839,3.839,0,0,1-1.5-1.473,4.086,4.086,0,0,1-.531-2.057,4.133,4.133,0,0,1,.524-2.057,3.859,3.859,0,0,1,1.45-1.473A4.059,4.059,0,0,1,55.574-45.1Zm2.247,3.34a2.138,2.138,0,0,0-.789-1.222,2.212,2.212,0,0,0-1.412-.493A2.34,2.34,0,0,0,54.155-43a2.363,2.363,0,0,0-.843,1.245ZM62.6-43.84a3.291,3.291,0,0,1,1.177-.934,3.387,3.387,0,0,1,1.465-.326v1.928l-.3-.015a2.457,2.457,0,0,0-1.731.562,1.877,1.877,0,0,0-.607,1.442v4.069H60.782v-7.834H62.6Zm4.357,10.521,1.64-4.19-3.021-7.439h1.959L69.557-39.7l1.928-5.253h1.943L68.8-33.318Z" fill="#002840" transform="translate(1242.857 2439.598)"/>
    <g transform="translate(1207 2382)">
      <path d="M4.985,0H25.357a4.985,4.985,0,0,1,4.985,4.985V25.357a4.985,4.985,0,0,1-4.985,4.985H4.985A4.985,4.985,0,0,1,0,25.357V4.985A4.985,4.985,0,0,1,4.985,0Z" fill="#ffd500" transform="translate(0 0)"/>
      <g clip-path="url(#a)" transform="translate(6.916 6.678)">
        <g transform="translate(0.214 -34.126)">
          <path d="M404.94,186.25c.228.11.435.247.657.366C405.38,186.491,405.163,186.367,404.94,186.25Z" fill="#002840" transform="translate(-378.999 -169.405)"/>
          <path d="M362.012,166.485V153.167h-8.019v20.355A22.163,22.163,0,0,1,362.012,166.485Z" fill="#002840" transform="translate(-353.993 -153.167)"/>
          <path d="M404.55,186.037l-.008.011c.067.034.136.063.2.1C404.677,186.113,404.618,186.069,404.55,186.037Z" fill="#002840" transform="translate(-378.803 -169.3)"/>
          <path d="M381.1,184.807c-.221-.119-.429-.256-.657-.366-.066-.035-.136-.064-.2-.1l-4.228,6.4a10.35,10.35,0,0,1,6.317,9.733,10.188,10.188,0,0,1-10.159,10.493c-5.948,0-10.159-4.745-10.159-10.493a10.135,10.135,0,0,1,9.764-10.453l4.62-6.995a19.731,19.731,0,0,0-4.226-.464,18.659,18.659,0,0,0-10.159,2.886v0a18.072,18.072,0,0,0-8.019,15.028h0v17.91h8.019V215.5a18.66,18.66,0,0,0,10.159,2.885,19.178,19.178,0,0,0,7.247-1.381,18.072,18.072,0,0,0,1.683-32.2Z" fill="#002840" transform="translate(-353.993 -167.596)"/>
        </g>
      </g>
    </g>
  </g>
</svg>
