<svg xmlns="http://www.w3.org/2000/svg" width="177.101" height="38.25" viewBox="0 0 177.101 38.25"><g transform="translate(46.47 9.194)"><path d="M193.105,130.318v17.333h-2.781V130.318Z" transform="translate(-175.632 -130.318)" fill="#002840"/><path d="M272.362,145.037V152.2h-2.781v-6.7a2.794,2.794,0,1,0-5.586-.07V152.2h-2.781v-6.7a2.7,2.7,0,0,0-2.8-2.889,2.8,2.8,0,0,0-2.781,2.912V152.2h-2.781V140.276h2.781v1.386a4.617,4.617,0,0,1,3.546-1.618,4.7,4.7,0,0,1,3.986,2.034,5.134,5.134,0,0,1,4.172-2.034A4.829,4.829,0,0,1,272.362,145.037Z" transform="translate(-204.785 -134.868)" fill="#002840"/><path d="M300.561,140.045v2.935c-2.688-.185-4.033,1.2-4.033,3.028V152.2h-2.781V140.276h2.781v1.687A5.123,5.123,0,0,1,300.561,140.045Z" transform="translate(-223.856 -134.868)" fill="#002840"/><path d="M319.545,147.232h-9.41a3.493,3.493,0,0,0,3.57,2.728,3.619,3.619,0,0,0,3.337-1.919l2.318.971a6.059,6.059,0,0,1-5.516,3.42,6.14,6.14,0,0,1-6.42-6.194,6.068,6.068,0,0,1,6.188-6.194A5.973,5.973,0,0,1,319.545,147.232Zm-9.386-2.1h6.883a3.461,3.461,0,0,0-3.361-2.612A3.541,3.541,0,0,0,310.159,145.13Z" transform="translate(-230.233 -134.868)" fill="#002840"/><path d="M345.52,140.276V152.2h-2.781v-1.6a5.073,5.073,0,0,1-4.01,1.826c-3.337,0-5.817-2.542-5.817-6.194s2.48-6.194,5.817-6.194a5.076,5.076,0,0,1,4.01,1.825v-1.594Zm-2.781,5.962a3.539,3.539,0,0,0-3.523-3.675,3.681,3.681,0,0,0,0,7.35A3.54,3.54,0,0,0,342.739,146.239Z" transform="translate(-242.118 -134.868)" fill="#002840"/><path d="M360.179,146.239a6.063,6.063,0,0,1,6.165-6.194,6.126,6.126,0,0,1,5.817,3.814l-2.573.878a3.548,3.548,0,0,0-3.175-2.126,3.43,3.43,0,0,0-3.454,3.628,3.471,3.471,0,0,0,6.722,1.364l2.5.97a6.121,6.121,0,0,1-5.818,3.86A6.041,6.041,0,0,1,360.179,146.239Z" transform="translate(-254.832 -134.868)" fill="#002840"/><path d="M397.326,140.741v6.91h-2.781V141.18a2.946,2.946,0,0,0-3.06-3.12,3.028,3.028,0,0,0-3.082,3.166v6.425h-2.782V130.318H388.4v6.957a5.069,5.069,0,0,1,8.923,3.467Z" transform="translate(-266.695 -130.318)" fill="#002840"/><path d="M165.577,136.574h0v-6.255H162.8v17.333h2.781V146.8h0a6.268,6.268,0,0,0,3.4.964,6.447,6.447,0,0,0,2.343-.432,6.2,6.2,0,0,0-.015-11.3,6.451,6.451,0,0,0-2.328-.426,6.267,6.267,0,0,0-3.4.964h0m3.081,8.744a3.426,3.426,0,0,1-3.081-1.835,3.858,3.858,0,0,1,0-3.588,3.426,3.426,0,0,1,3.081-1.834,3.63,3.63,0,0,1,0,7.257Z" transform="translate(-162.796 -130.318)" fill="#002840"/><g transform="translate(19.536 5.177)"><path d="M199.4,146.238a6.3,6.3,0,1,1,6.3,6.195A6.111,6.111,0,0,1,199.4,146.238Zm6.3,3.63a3.631,3.631,0,1,0-3.524-3.63A3.528,3.528,0,0,0,205.7,149.868Z" transform="translate(-199.399 -140.045)" fill="#002840"/></g><g transform="translate(33.532 5.177)"><path d="M225.623,146.238a6.305,6.305,0,1,1,6.3,6.195A6.111,6.111,0,0,1,225.623,146.238Zm6.3,3.63a3.631,3.631,0,1,0-3.523-3.63A3.528,3.528,0,0,0,231.928,149.868Z" transform="translate(-225.623 -140.045)" fill="#002840"/></g></g><ellipse cx="19.179" cy="19.125" rx="19.179" ry="19.125" fill="#ffd500"/><g transform="translate(14.248 9.194)"><path d="M111.243,140.976l-.94,2.383a3.5,3.5,0,0,1,1.618,3,3.406,3.406,0,1,1-3.556-3.5l.883-2.443a5.88,5.88,0,0,0-6.817,5.784l-.007,0v6.148h2.688v-.964a6.266,6.266,0,0,0,3.4.964,5.917,5.917,0,0,0,6.09-5.986A5.858,5.858,0,0,0,111.243,140.976Z" transform="translate(-102.424 -135.016)" fill="#002840"/><path d="M102.424,135.985a8.249,8.249,0,0,1,2.684-1.818v-3.849h-2.684Z" transform="translate(-102.424 -130.318)" fill="#002840"/></g></svg>